<svg width="150" height="25" viewBox="0 0 150 25" fill="none" xmlns="http://www.w3.org/2000/svg">
<path d="M24.0725 17.8824C23.6408 18.1692 23.1769 18.3458 22.6622 18.4238C22.1497 18.5041 21.6535 18.4881 21.141 18.4881H10.6986C10.1862 18.4881 9.68993 18.5041 9.1775 18.4238C8.66508 18.3435 8.20112 18.1692 7.76718 17.8824C6.91775 17.2928 6.40532 16.3362 6.40532 15.3153C6.40532 14.2784 6.91775 13.3218 7.76718 12.7483C8.19882 12.4615 8.66277 12.2871 9.1775 12.2069C9.68993 12.1266 10.1862 12.1426 10.6986 12.1426H21.1433C21.6558 12.1426 22.152 12.1266 22.6645 12.2069C23.1769 12.2871 23.6408 12.4615 24.0748 12.7483C24.9242 13.3378 25.4366 14.2945 25.4366 15.3153C25.4343 16.3523 24.9219 17.3089 24.0725 17.8824ZM28.2688 7.91462C27.147 7.02222 25.866 6.40052 24.4741 6.06558C23.6732 5.87517 22.8722 5.79488 22.0551 5.76276C21.4457 5.7467 20.8387 5.7467 20.2293 5.7467H11.6127C11.0033 5.7467 10.3962 5.7467 9.78687 5.76276C8.96976 5.79488 8.16881 5.87517 7.36785 6.06558C5.97369 6.40052 4.69262 7.02222 3.57082 7.91462C1.31338 9.71777 0 12.4431 0 15.3153C0 18.2013 1.31338 20.9129 3.57082 22.7138C4.69262 23.6062 5.97369 24.2302 7.36555 24.5628C8.1665 24.7532 8.96745 24.8335 9.78457 24.8656C10.3939 24.8817 11.001 24.8817 11.6104 24.8817H20.227C20.8363 24.8817 21.4457 24.8817 22.0528 24.8656C22.8699 24.8335 23.6708 24.7532 24.4718 24.5628C25.866 24.2279 27.147 23.6062 28.2665 22.7138C30.5263 20.9106 31.8373 18.1852 31.8397 15.313C31.842 12.4271 30.5286 9.71777 28.2688 7.91462Z" fill="black"/>
<path d="M136.919 18.2357L134.17 21.0368C136.158 23.2781 139.073 24.3999 142.351 24.3999C146.69 24.3999 150 22.2572 150 18.761C150 15.4966 147.683 13.7163 144.006 13.3539L141.951 13.1566C140.262 12.9914 139.17 12.4317 139.17 11.4429C139.17 10.3876 140.296 9.79346 142.217 9.79346C144.303 9.79346 145.859 10.6514 146.886 11.904L149.603 9.13506C147.913 7.12314 145.33 6.16651 142.415 6.16651C137.877 6.16651 134.997 8.40783 134.997 11.7067C134.997 14.7074 137.182 16.6849 141.09 17.0497L143.177 17.2469C144.867 17.4121 145.76 18.0063 145.76 18.995C145.76 20.2155 144.368 20.7753 142.581 20.7753C140.296 20.773 138.311 19.8507 136.919 18.2357ZM126.585 24.104H130.858V6.43033H126.422V16.5863C126.422 18.8941 124.767 20.4105 122.613 20.4105C120.494 20.4105 119.07 18.8276 119.07 16.5863V6.43033H114.631V17.2791C114.631 21.5988 117.876 24.3678 121.586 24.3678C123.672 24.3678 125.461 23.4112 126.588 22.1907V24.104H126.585ZM109.696 0H105.257V24.104H109.696V0ZM95.886 24.104H100.159V6.43033H95.7198V16.5863C95.7198 18.8941 94.0648 20.4105 91.9112 20.4105C89.7923 20.4105 88.3681 18.8276 88.3681 16.5863V6.43033H83.9294V17.2791C83.9294 21.5988 87.1748 24.3678 90.8841 24.3678C92.9707 24.3678 94.7596 23.4112 95.886 22.1907V24.104ZM77.8703 18.6303C77.0093 19.619 75.7514 20.3118 74.094 20.3118C71.1464 20.3118 69.2583 18.1692 69.2583 15.2993C69.2583 12.3651 71.1464 10.2202 74.094 10.2202C75.749 10.2202 77.0093 10.913 77.8703 11.9683L80.9172 8.93547C79.3268 7.22179 76.9424 6.1321 74.1287 6.1321C68.7644 6.1321 64.8219 10.055 64.8219 15.2649C64.8219 20.4747 68.762 24.3976 74.1287 24.3976C76.9101 24.3976 79.3291 23.3102 80.9172 21.6287L77.8703 18.6303ZM52.6991 20.3118C49.7515 20.3118 47.8311 18.1692 47.8311 15.2993C47.8311 12.3651 49.7515 10.2202 52.6991 10.2202C55.6467 10.2202 57.5672 12.3628 57.5672 15.2993C57.5695 18.1692 55.6467 20.3118 52.6991 20.3118ZM52.6991 24.3999C58.0634 24.3999 62.0059 20.477 62.0059 15.2672C62.0059 10.0573 58.0657 6.13439 52.6991 6.13439C47.3325 6.13439 43.3947 10.0573 43.3947 15.2672C43.3947 20.477 47.3348 24.3999 52.6991 24.3999Z" fill="black"/>
</svg>
